<svg height="56" viewBox="0 0 512 512" width="56" xmlns="http://www.w3.org/2000/svg"><path d="m486.398438 238.933594h-17.066407v-8.535156c-.015625-14.132813-11.464843-25.582032-25.597656-25.597657h-119.46875c-14.132813.015625-25.582031 11.464844-25.597656 25.597657v8.535156h-238.933594v-170.667969c-.019531-26.78125 20.617187-49.046875 47.324219-51.058594 26.703125-2.011719 50.445312 16.910157 54.4375 43.394531-24.316406 4.445313-41.988282 25.613282-42.03125 50.332032v8.53125c0 4.714844 3.824218 8.535156 8.535156 8.535156h85.332031c4.714844 0 8.535157-3.820312 8.535157-8.535156v-8.53125c-.042969-25.144532-18.324219-46.539063-43.152344-50.503906-4.144532-35.9375-35.609375-62.394532-71.722656-60.316407-36.117188 2.082031-64.332032 31.976563-64.324219 68.152344v170.667969h-17.066407c-14.132812.015625-25.585937 11.464844-25.601562 25.597656.015625 10.824219 6.855469 20.457031 17.066406 24.046875v69.820313c.097656 62.605468 48.488282 114.53125 110.933594 119.035156v8.964844c0 14.140624 11.460938 25.601562 25.601562 25.601562 14.136719 0 25.597657-11.460938 25.597657-25.601562v-8.53125h153.601562v8.53125c0 14.140624 11.460938 25.601562 25.597657 25.601562 14.140624 0 25.601562-11.460938 25.601562-25.601562v-8.964844c62.445312-4.503906 110.835938-56.429688 110.933594-119.035156v-69.839844c10.199218-3.589844 17.035156-13.214844 17.066406-24.027344-.066406-14.109375-11.488281-25.53125-25.601562-25.597656zm-281.597657-128h-68.265625c0-18.851563 15.28125-34.132813 34.132813-34.132813 18.851562 0 34.132812 15.28125 34.132812 34.132813zm230.398438 128v-8.535156c0-4.710938 3.820312-8.53125 8.535156-8.53125 4.710937 0 8.53125 3.820312 8.53125 8.53125v8.535156zm-119.464844-8.535156c.003906-4.710938 3.820313-8.527344 8.53125-8.53125h95.441406c-1.011719 2.730468-1.546875 5.617187-1.574219 8.53125v93.867187h-76.800781c-4.710937 0-8.53125 3.820313-8.53125 8.535156 0 4.710938 3.820313 8.53125 8.53125 8.53125h76.800781v17.066407h-102.398437zm-153.601563 256c0 4.714843-3.820312 8.535156-8.53125 8.535156-4.714843 0-8.535156-3.820313-8.535156-8.535156v-8.53125h17.066406zm204.800782 0c0 4.714843-3.820313 8.535156-8.535156 8.535156-4.710938 0-8.53125-3.820313-8.53125-8.535156v-8.53125h17.066406zm8.53125-25.597657h-238.929688c-56.527344-.066406-102.335937-45.875-102.402344-102.402343v-68.265626h221.867188c4.710938 0 8.535156-3.820312 8.535156-8.535156 0-4.710937-3.824218-8.53125-8.535156-8.53125h-230.398438c-2.300781.003906-4.5-.9375-6.078124-2.609375-1.589844-1.558593-2.476563-3.699219-2.457032-5.925781.007813-4.710938 3.824219-8.527344 8.535156-8.53125h273.066407v102.398438c.019531 6.070312 3.269531 11.667968 8.53125 14.695312v19.4375c0 4.714844 3.820312 8.535156 8.535156 8.535156 4.710937 0 8.53125-3.820312 8.53125-8.535156v-17.066406h17.066406v17.066406c0 4.714844 3.820313 8.535156 8.535157 8.535156 4.710937 0 8.53125-3.820312 8.53125-8.535156v-17.066406h17.066406v17.066406c0 4.714844 3.824218 8.535156 8.535156 8.535156s8.535156-3.820312 8.535156-8.535156v-17.066406h17.066406v17.066406c0 4.714844 3.820313 8.535156 8.53125 8.535156 4.714844 0 8.535157-3.820312 8.535157-8.535156v-19.441406c5.261719-3.023438 8.511719-8.621094 8.53125-14.691406v-68.265626h42.667969v68.265626c-.0625 56.527343-45.871094 102.335937-102.402344 102.402343zm110.933594-187.734375h-51.199219v-17.066406h51.199219c2.304687-.003906 4.503906.941406 6.085937 2.613281 1.585937 1.558594 2.46875 3.695313 2.449219 5.917969-.003906 4.710938-3.824219 8.53125-8.535156 8.535156zm0 0"/><path d="m179.199219 153.597656c0-4.710937-3.820313-8.53125-8.53125-8.53125-4.714844 0-8.535157 3.820313-8.535157 8.53125v8.535156c0 4.710938 3.820313 8.53125 8.535157 8.53125 4.710937 0 8.53125-3.820312 8.53125-8.53125zm0 0"/><path d="m170.667969 187.730469c-4.714844 0-8.535157 3.824219-8.535157 8.535156v8.535156c0 4.710938 3.820313 8.53125 8.535157 8.53125 4.710937 0 8.53125-3.820312 8.53125-8.53125v-8.535156c0-4.710937-3.820313-8.535156-8.53125-8.535156zm0 0"/><path d="m140.679688 137.863281-5.972657 6.097657c-3.300781 3.367187-3.246093 8.769531.121094 12.070312 3.367187 3.296875 8.769531 3.242188 12.070313-.125l5.972656-6.09375c3.300781-3.367188 3.242187-8.769531-.121094-12.070312-3.367188-3.300782-8.773438-3.242188-12.070312.121093zm0 0"/><path d="m110.8125 168.335938-5.972656 6.097656c-3.300782 3.367187-3.246094 8.769531.121094 12.066406 3.367187 3.300781 8.769531 3.246094 12.070312-.121094l5.972656-6.097656c3.300782-3.367188 3.246094-8.769531-.121094-12.066406-3.367187-3.300782-8.773437-3.246094-12.070312.121094zm0 0"/><path d="m188.585938 137.746094c-3.363282 3.300781-3.414063 8.699218-.121094 12.070312l5.972656 6.09375c2.136719 2.179688 5.269531 3.054688 8.222656 2.292969 2.953125-.757813 5.277344-3.035156 6.097656-5.972656.816407-2.9375.007813-6.085938-2.125-8.265625l-5.976562-6.097656c-1.582031-1.617188-3.746094-2.539063-6.007812-2.5625-2.265626-.023438-4.445313.855468-6.0625 2.441406zm0 0"/><path d="m218.328125 180.285156 5.972656 6.097656c2.136719 2.175782 5.269531 3.050782 8.222657 2.292969 2.953124-.761719 5.277343-3.035156 6.097656-5.972656.816406-2.9375.007812-6.089844-2.125-8.265625l-5.976563-6.097656c-3.296875-3.367188-8.699219-3.421875-12.066406-.121094-3.367187 3.296875-3.421875 8.703125-.125 12.066406zm0 0"/><path d="m162.132812 426.664062h-25.597656c-37.6875-.042968-68.226562-30.582031-68.269531-68.265624 0-4.710938-3.820313-8.53125-8.53125-8.53125-4.714844 0-8.535156 3.820312-8.535156 8.53125.054687 47.105468 38.226562 85.28125 85.335937 85.332031h25.597656c4.714844 0 8.535157-3.820313 8.535157-8.53125 0-4.714844-3.820313-8.535157-8.535157-8.535157zm0 0"/><path d="m59.734375 332.800781c4.710937 0 8.53125-3.824219 8.53125-8.535156v-8.535156c0-4.710938-3.820313-8.53125-8.53125-8.53125-4.714844 0-8.535156 3.820312-8.535156 8.53125v8.535156c0 4.710937 3.820312 8.535156 8.535156 8.535156zm0 0"/></svg>